<?xml version="1.0" standalone="no"?>
<!DOCTYPE svg PUBLIC "-//W3C//DTD SVG 20010904//EN"
 "http://www.w3.org/TR/2001/REC-SVG-20010904/DTD/svg10.dtd">
<svg version="1.0" xmlns="http://www.w3.org/2000/svg"
 width="260.000000pt" height="260.000000pt" viewBox="0 0 260.000000 260.000000"
 preserveAspectRatio="xMidYMid meet">
<metadata>
Created by potrace 1.11, written by Peter Selinger 2001-2013
</metadata>
<g transform="translate(0.000000,260.000000) scale(0.100000,-0.100000)"
fill="#000000" stroke="none">
<path d="M1790 1760 c-89 -9 -143 -26 -220 -66 -132 -69 -225 -180 -276 -329
-35 -103 -44 -271 -20 -385 47 -225 213 -400 431 -455 75 -19 231 -19 312 0
210 49 374 212 418 413 l7 32 -109 0 -109 0 -23 -54 c-47 -114 -145 -187 -276
-205 -127 -18 -239 14 -324 94 -83 78 -121 180 -121 330 0 271 141 428 385
428 161 0 274 -68 331 -198 l28 -65 108 0 c122 0 118 -3 89 81 -32 95 -62 142
-135 215 -127 126 -300 183 -496 164z"/>
<path d="M83 1683 c12 -32 116 -303 232 -603 l210 -545 110 0 109 0 213 550
c117 303 222 574 233 603 l20 52 -113 0 -113 0 -168 -457 c-92 -252 -171 -461
-175 -466 -4 -4 -84 202 -177 458 l-169 465 -117 0 -117 0 22 -57z"/>
</g>
</svg>
